# xmcd
#
# Track frame offsets:
#	225
#	14064
#	30802
#	48977
#	63283
#	77906
#	89701
#	102913
#	119538
#	139393
#	156655
#	166984
#	176784
#	191128
#	204803
#
# Disc length: 2997 seconds
#
# Revision: 1
# Processed by: cddbd v1.5.2PL0 Copyright (c) Steve Scherf et al.
# Submitted via: audiograbber 1.83.01
#
DISCID=d50bb20f
DTITLE=Bullsboro - Still Bullsboro After All These Years
DYEAR=2002
DGENRE=Bluegrass
TTITLE0=Can't You Hear Me Callin'
TTITLE1=Summer Days (With Daddy Bill)
TTITLE2=You Win Again
TTITLE3=Our Love Is Like A Flower
TTITLE4=Dark Hollow
TTITLE5=In His Care
TTITLE6=Working Man Blues
TTITLE7=Bobby McGee
TTITLE8=Sittin' On Top Of The World
TTITLE9=In The Pines
TTITLE10=Lonesome Hearted (Heartache) Blues
TTITLE11=Bluegrass Stomp
TTITLE12=With My Savior I'll Abide
TTITLE13=Would You Lay With Me (In A Field Of Stone)
TTITLE14=White Freightliner Blues
EXTD=
EXTT0=
EXTT1=
EXTT2=
EXTT3=
EXTT4=
EXTT5=
EXTT6=
EXTT7=
EXTT8=
EXTT9=
EXTT10=
EXTT11=
EXTT12=
EXTT13=
EXTT14=
PLAYORDER=
